<?xml version="1.0" standalone="no"?><!DOCTYPE svg PUBLIC "-//W3C//DTD SVG 1.1//EN" "http://www.w3.org/Graphics/SVG/1.1/DTD/svg11.dtd"><svg t="1658046268923" class="icon" viewBox="0 0 1024 1024" version="1.1" xmlns="http://www.w3.org/2000/svg" p-id="2888" xmlns:xlink="http://www.w3.org/1999/xlink" width="200" height="200"><defs><style type="text/css">@font-face { font-family: feedback-iconfont; src: url("//at.alicdn.com/t/font_1031158_u69w8yhxdu.woff2?t=1630033759944") format("woff2"), url("//at.alicdn.com/t/font_1031158_u69w8yhxdu.woff?t=1630033759944") format("woff"), url("//at.alicdn.com/t/font_1031158_u69w8yhxdu.ttf?t=1630033759944") format("truetype"); }
</style></defs><path d="M729.884444 561.493333l46.648889-54.613333a14.222222 14.222222 0 0 0-10.808889-23.324444h-93.297777a14.222222 14.222222 0 0 0-10.808889 23.324444l46.648889 54.613333a14.222222 14.222222 0 0 0 21.617777 0z" p-id="2889"></path><path d="M824.888889 284.444444H199.111111a85.333333 85.333333 0 0 0-85.333333 85.333334v284.444444a85.333333 85.333333 0 0 0 85.333333 85.333334h625.777778a85.333333 85.333333 0 0 0 85.333333-85.333334V369.777778a85.333333 85.333333 0 0 0-85.333333-85.333334z m28.444444 355.555556a42.666667 42.666667 0 0 1-42.666666 42.666667h-597.333334A42.666667 42.666667 0 0 1 170.666667 640v-256A42.666667 42.666667 0 0 1 213.333333 341.333333h597.333334a42.666667 42.666667 0 0 1 42.666666 42.666667z" p-id="2890"></path></svg>